HIERARCHY
ROOT Hips
{
	OFFSET 0.000000 0.000000 0.000000
	CHANNELS 6 Xposition Yposition Zposition Xrotation Yrotation Zrotation
	JOINT LeftUpLeg_virtual
	{
		OFFSET 0.000000 0.000000 0.000000
		CHANNELS 3 Xrotation Yrotation Zrotation
		JOINT LeftUpLeg
		{
			OFFSET 11.394100 -6.187798 -0.413800
			CHANNELS 3 Xrotation Yrotation Zrotation
			JOINT LeftLeg
			{
				OFFSET 0.430247 -32.302673 3.732800
				CHANNELS 3 Xrotation Yrotation Zrotation
				JOINT LeftFoot
				{
					OFFSET -0.430247 -48.264931 -6.423300
					CHANNELS 3 Xrotation Yrotation Zrotation
					JOINT LeftToeBase
					{
						OFFSET 4.230900 -16.068199 23.438400
						CHANNELS 3 Xrotation Yrotation Zrotation
						JOINT LeftToe_End
						{
							OFFSET 4.510700 0.695400 19.974600
							CHANNELS 3 Xrotation Yrotation Zrotation
							End Site
							{
								OFFSET 0 0 0
							}
						}
					}
				}
			}
		}
	}
	JOINT RightUpLeg_virtual
	{
		OFFSET 0.000000 0.000000 0.000000
		CHANNELS 3 Xrotation Yrotation Zrotation
		JOINT RightUpLeg
		{
			OFFSET -11.333700 -6.187798 -0.413800
			CHANNELS 3 Xrotation Yrotation Zrotation
			JOINT RightLeg
			{
				OFFSET -0.430392 -32.302628 3.733000
				CHANNELS 3 Xrotation Yrotation Zrotation
				JOINT RightFoot
				{
					OFFSET 0.430392 -48.264973 -6.423500
					CHANNELS 3 Xrotation Yrotation Zrotation
					JOINT RightToeBase
					{
						OFFSET -4.230900 -16.068199 23.438400
						CHANNELS 3 Xrotation Yrotation Zrotation
						JOINT RightToe_End
						{
							OFFSET -4.510700 0.695400 19.974600
							CHANNELS 3 Xrotation Yrotation Zrotation
							End Site
							{
								OFFSET 0 0 0
							}
						}
					}
				}
			}
		}
	}
	JOINT Spine_virtual
	{
		OFFSET 0.000000 0.000000 0.000000
		CHANNELS 3 Xrotation Yrotation Zrotation
		JOINT Spine
		{
			OFFSET -0.002400 12.777504 0.315300
			CHANNELS 3 Xrotation Yrotation Zrotation
			JOINT Spine1
			{
				OFFSET -0.002067 5.816869 0.032633
				CHANNELS 3 Xrotation Yrotation Zrotation
				JOINT Spine1_split
				{
					OFFSET -0.002067 5.816869 0.032633
					CHANNELS 3 Xrotation Yrotation Zrotation
					JOINT Spine2
					{
						OFFSET -0.002067 5.816869 0.032633
						CHANNELS 3 Xrotation Yrotation Zrotation
						JOINT Neck_virtual
						{
							OFFSET 0.000000 0.000000 0.000000
							CHANNELS 3 Xrotation Yrotation Zrotation
							JOINT Neck
							{
								OFFSET -0.003700 21.199493 -0.826900
								CHANNELS 3 Xrotation Yrotation Zrotation
								JOINT Head
								{
									OFFSET 0.000000 20.442200 4.834800
									CHANNELS 3 Xrotation Yrotation Zrotation
									JOINT HeadTop_End
									{
										OFFSET 0.000000 34.668396 4.968400
										CHANNELS 3 Xrotation Yrotation Zrotation
										End Site
										{
											OFFSET 0 0 0
										}
									}
								}
							}
						}
						JOINT LeftShoulder_virtual
						{
							OFFSET 0.000000 0.000000 0.000000
							CHANNELS 3 Xrotation Yrotation Zrotation
							JOINT LeftShoulder
							{
								OFFSET 3.288150 8.794197 -1.372250
								CHANNELS 3 Xrotation Yrotation Zrotation
								JOINT LeftShoulder_split
								{
									OFFSET 3.288150 8.794197 -1.372250
									CHANNELS 3 Xrotation Yrotation Zrotation
									JOINT LeftArm
									{
										OFFSET 11.953299 -2.279007 -0.146200
										CHANNELS 3 Xrotation Yrotation Zrotation
										JOINT LeftForeArm
										{
											OFFSET 18.448900 0.000000 0.000000
											CHANNELS 3 Xrotation Yrotation Zrotation
											JOINT LeftHand
											{
												OFFSET 29.527798 0.000000 0.000000
												CHANNELS 3 Xrotation Yrotation Zrotation
												End Site
												{
													OFFSET 0 0 0
												}
											}
										}
									}
								}
							}
						}
						JOINT RightShoulder_virtual
						{
							OFFSET 0.000000 0.000000 0.000000
							CHANNELS 3 Xrotation Yrotation Zrotation
							JOINT RightShoulder
							{
								OFFSET -3.249400 8.794197 -1.372250
								CHANNELS 3 Xrotation Yrotation Zrotation
								JOINT RightShoulder_split
								{
									OFFSET -3.249400 8.794197 -1.372250
									CHANNELS 3 Xrotation Yrotation Zrotation
									JOINT RightArm
									{
										OFFSET -11.953299 -2.279007 -0.146200
										CHANNELS 3 Xrotation Yrotation Zrotation
										JOINT RightForeArm
										{
											OFFSET -18.448900 0.000000 0.000000
											CHANNELS 3 Xrotation Yrotation Zrotation
											JOINT RightHand
											{
												OFFSET -29.527802 0.000000 0.000000
												CHANNELS 3 Xrotation Yrotation Zrotation
												End Site
												{
													OFFSET 0 0 0
												}
											}
										}
									}
								}
							}
						}
					}
				}
			}
		}
	}
}
MOTION
Frames: 5
Frame Time: 0.03333333
2.074386 136.442307 4.682304 0.000000 0.000000 0.000000 8.360719 -7.046124 8.305399 -104.677833 -9.261872 13.377234 65.278666 1.561986 -12.743203 18.938547 -14.803836 6.076176 2.828946 -1.142614 -1.424158 0.000000 0.000000 0.000000 6.750509 3.375445 7.601677 -110.333004 3.768662 1.764922 116.470817 -4.675118 -9.401102 48.436918 15.525886 9.178773 19.468670 -1.213922 -3.136671 0.000000 0.000000 0.000000 1.078374 -2.894778 10.676273 29.924469 -9.707878 -11.051783 0.620089 -3.671612 -1.959618 2.956357 -0.873076 0.734315 0.000000 0.000000 0.000000 3.130527 -2.017699 -1.084003 -22.392652 4.670347 5.887405 19.633114 2.428546 -18.632551 0.000000 0.000000 0.000000 2.741990 -2.250699 -0.948243 12.962240 -39.640451 32.475487 -4.212144 -0.556293 0.901583 -65.830217 14.715675 19.475829 -50.921762 -70.566489 -34.666410 0.000000 0.000000 0.000000 3.178577 -2.321623 -0.898051 1.253776 8.950679 -16.364688 6.025456 2.725016 -2.948753 -86.547096 -10.626906 -16.144460 -63.484136 67.514958 59.776081 0.000000 0.000000 0.000000 
0.780368 135.834824 9.894997 0.000000 0.000000 0.000000 6.544638 -7.435509 8.596141 -103.220804 -8.900384 14.557425 63.596643 1.240780 -12.651219 20.101581 -13.168997 7.891735 0.798418 -0.819816 -1.330934 0.000000 0.000000 0.000000 5.586636 0.182049 8.280204 -107.512696 3.124552 -0.763800 113.209211 -4.923966 -8.427378 47.327805 13.990650 10.477497 16.883541 -1.345034 -3.415458 0.000000 0.000000 0.000000 -0.291365 -3.282256 10.115085 29.708762 -9.522840 -10.836883 0.252741 -3.429440 -2.283675 2.006641 -2.293377 0.899662 0.000000 0.000000 0.000000 3.099821 -1.886339 -1.438841 -22.359340 3.714747 7.082665 19.062030 3.263135 -19.394551 0.000000 0.000000 0.000000 2.468098 -2.095927 -1.369871 10.938357 -38.535862 29.708461 -3.566830 -1.805242 1.600930 -64.010340 13.626826 18.112637 -59.045640 -71.804556 -42.847891 0.000000 0.000000 0.000000 3.011791 -2.136467 -1.315153 0.777097 9.001327 -16.572324 6.893718 1.673107 -0.995292 -85.397452 -10.865852 -13.648457 -64.442172 67.183680 60.825806 0.000000 0.000000 0.000000 
-0.565118 134.984482 17.416040 0.000000 0.000000 0.000000 4.551714 -9.711382 9.275170 -97.510636 -9.167437 15.383965 57.362053 1.463022 -12.015692 24.540269 -10.280133 8.564621 -1.580156 -0.247274 -1.298311 0.000000 0.000000 0.000000 3.813037 -5.237629 9.256953 -99.092624 1.658118 -4.162265 104.199686 -5.188470 -7.577779 45.169335 10.140691 11.213367 17.373609 -1.344356 -1.833125 0.000000 0.000000 0.000000 -1.951306 -5.164292 9.714443 27.926472 -8.727321 -9.995873 0.358563 -3.079001 -3.272330 1.066174 -3.684960 1.464904 0.000000 0.000000 0.000000 3.692768 -1.788892 -2.454630 -21.879290 2.803687 9.539601 19.443243 4.797828 -20.094283 0.000000 0.000000 0.000000 2.852090 -1.963149 -2.455950 7.504701 -35.685720 24.716921 -2.758033 -2.698225 1.730296 -59.946644 10.403971 15.469887 -64.500782 -72.475096 -48.165664 0.000000 0.000000 0.000000 3.294798 -2.060437 -2.405258 0.426090 11.067688 -15.795268 6.788430 0.879640 0.252204 -82.691208 -12.105826 -11.485064 -68.588370 67.010685 64.901694 0.000000 0.000000 0.000000 
-1.556155 133.952545 26.082844 0.000000 0.000000 0.000000 2.220643 -13.306548 9.778330 -87.874864 -9.772988 16.047266 46.836076 2.670618 -11.020749 30.618177 -6.293448 8.103116 -2.708300 0.481481 -1.658981 0.000000 0.000000 0.000000 1.890475 -11.177230 9.979730 -85.454908 -0.963026 -7.469629 89.576572 -5.422263 -6.736742 43.253764 5.058167 11.096894 19.240204 -1.209568 0.543367 0.000000 0.000000 0.000000 -4.096014 -8.578069 9.325367 24.957516 -7.480602 -8.431428 1.039817 -2.668952 -4.686990 1.179261 -4.722783 1.811655 0.000000 0.000000 0.000000 4.599589 -1.743490 -3.844986 -20.861454 2.053456 12.536032 20.451697 6.711860 -20.677901 0.000000 0.000000 0.000000 3.792924 -1.833858 -4.001544 3.557469 -31.371380 18.417851 -1.476102 -2.691787 1.888554 -54.839452 5.331290 12.088022 -64.522721 -72.357904 -47.820972 0.000000 0.000000 0.000000 3.989159 -2.034362 -3.953421 0.164550 14.688288 -14.374794 6.178953 0.732254 1.013600 -79.459429 -14.609307 -10.558339 -75.342485 66.815991 71.455499 0.000000 0.000000 0.000000 
-2.278082 132.365814 35.643303 0.000000 0.000000 0.000000 -0.249364 -18.461501 9.954128 -75.514168 -10.600481 16.480758 34.265580 4.892197 -9.503989 35.975761 -2.030144 7.308816 -2.030665 1.152947 -2.541966 0.000000 0.000000 0.000000 0.015682 -16.799509 10.242136 -69.147271 -4.674139 -10.074234 71.316109 -5.081618 -6.094850 42.412019 1.206421 11.162095 18.953869 -1.008905 2.098916 0.000000 0.000000 0.000000 -5.981144 -13.260797 8.727500 21.354271 -5.981708 -6.099315 2.177904 -2.139363 -6.222775 1.318352 -4.770763 1.745806 0.000000 0.000000 0.000000 5.670241 -1.575942 -5.329904 -19.558247 1.681860 15.169568 21.493765 8.804174 -21.153902 0.000000 0.000000 0.000000 4.974018 -1.570708 -5.679029 -0.016989 -26.336002 12.006393 -0.453823 -2.046176 2.537376 -50.272347 -0.392705 8.956545 -60.574810 -71.376809 -43.193809 0.000000 0.000000 0.000000 4.979872 -1.874174 -5.667231 -0.115011 19.114288 -12.656865 5.625626 1.473677 1.843159 -76.916222 -18.202319 -11.184529 -82.779516 66.334907 78.668746 0.000000 0.000000 0.000000 
